<?xml version="1.0"?>
<!DOCTYPE svg PUBLIC "-//W3C//DTD SVG 1.1//EN" "http://www.w3.org/Graphics/SVG/1.1/DTD/svg11.dtd">
<svg width="285.6mm" height="285.6mm" viewBox="0 0 285.6 285.6" xmlns="http://www.w3.org/2000/svg" version="1.1">
<g id="Fusion003" transform="translate(142.800000,142.800000) scale(1,-1)">
<path id="Fusion003_w0000"  d="M -70.0 -140.0 L -35.0 -140.0 L 0.0 -140.0 L 35.0 -140.0 L 70.0 -140.0 L 105.0 -140.0 L 140.0 -140.0 L 140.0 -104.99999999999994 L 140.0 -70.0 L 140.0 -35.0 L 140.0 0.0 L 140.0 35.0 L 140.0 70.0 L 140.0 105.0 L 140.0 140.0 L 105.0 140.0 L 70.0 140.0 L 35.0 140.0 L 0.0 140.0 L -35.0 140.0 L -70.0 140.0 L -105.0 140.0 L -140.0 140.0 L -140.0 105.0 L -140.0 70.0 L -140.0 35.0 L -140.0 0.0 L -140.0 -35.0 L -140.0 -70.0 L -140.0 -105.0 L -140.0 -140.0 L -105.0 -140.0 L -70.0 -140.0 " stroke="#191919" stroke-width="0.35 px" style="stroke-width:0.35;stroke-miterlimit:4;stroke-dasharray:none;fill:none;fill-opacity:1;fill-rule: evenodd"/>
<path id="Fusion003_w0001"  d="M -140.0 105.0 L -105.0 105.0 L -70.0 105.0 L -35.0 105.0 L 0.0 105.0 L 35.0 105.0 L 70.0 105.0 L 105.0 105.0 L 140.0 105.0 " stroke="#191919" stroke-width="0.35 px" style="stroke-width:0.35;stroke-miterlimit:4;stroke-dasharray:none;fill:none;fill-opacity:1;fill-rule: evenodd"/>
<path id="Fusion003_w0002"  d="M -140.0 70.0 L -105.0 70.0 L -70.0 70.0 L -35.0 70.0 L 0.0 70.0 L 35.0 70.0 L 70.0 70.0 L 105.0 70.0 L 140.0 70.0 " stroke="#191919" stroke-width="0.35 px" style="stroke-width:0.35;stroke-miterlimit:4;stroke-dasharray:none;fill:none;fill-opacity:1;fill-rule: evenodd"/>
<path id="Fusion003_w0003"  d="M -140.0 35.0 L -105.0 35.0 L -70.0 35.0 L -35.0 35.0 L 0.0 35.0 L 35.0 35.0 L 70.0 35.0 L 105.0 35.0 L 140.0 35.0 " stroke="#191919" stroke-width="0.35 px" style="stroke-width:0.35;stroke-miterlimit:4;stroke-dasharray:none;fill:none;fill-opacity:1;fill-rule: evenodd"/>
<path id="Fusion003_w0004"  d="M -140.0 0.0 L -105.0 0.0 L -70.0 0.0 L -35.0 0.0 L 0.0 0.0 L 35.0 0.0 L 70.0 0.0 L 105.0 0.0 L 140.0 0.0 " stroke="#191919" stroke-width="0.35 px" style="stroke-width:0.35;stroke-miterlimit:4;stroke-dasharray:none;fill:none;fill-opacity:1;fill-rule: evenodd"/>
<path id="Fusion003_w0005"  d="M -140.0 -35.0 L -105.0 -35.0 L -70.0 -35.0 L -35.0 -35.0 L 0.0 -35.0 L 35.0 -35.0 L 70.0 -35.0 L 105.0 -35.0 L 140.0 -35.0 " stroke="#191919" stroke-width="0.35 px" style="stroke-width:0.35;stroke-miterlimit:4;stroke-dasharray:none;fill:none;fill-opacity:1;fill-rule: evenodd"/>
<path id="Fusion003_w0006"  d="M -140.0 -70.0 L -105.0 -70.0 L -70.0 -70.0 L -35.0 -70.0 L 0.0 -70.0 L 35.0 -70.0 L 70.0 -70.0 L 105.0 -70.0 L 140.0 -70.0 " stroke="#191919" stroke-width="0.35 px" style="stroke-width:0.35;stroke-miterlimit:4;stroke-dasharray:none;fill:none;fill-opacity:1;fill-rule: evenodd"/>
<path id="Fusion003_w0007"  d="M -140.0 -105.0 L -105.0 -105.0 L -70.0 -104.99999999999999 L -35.0 -104.99999999999997 L 0.0 -104.99999999999997 L 35.0 -104.99999999999997 L 70.0 -104.99999999999996 L 105.0 -104.99999999999994 L 140.0 -104.99999999999994 " stroke="#191919" stroke-width="0.35 px" style="stroke-width:0.35;stroke-miterlimit:4;stroke-dasharray:none;fill:none;fill-opacity:1;fill-rule: evenodd"/>
<path id="Fusion003_w0008"  d="M 105.0 -140.0 L 105.0 -104.99999999999994 L 105.0 -70.0 L 105.0 -35.0 L 105.0 0.0 L 105.0 35.0 L 105.0 70.0 L 105.0 105.0 L 105.0 140.0 " stroke="#191919" stroke-width="0.35 px" style="stroke-width:0.35;stroke-miterlimit:4;stroke-dasharray:none;fill:none;fill-opacity:1;fill-rule: evenodd"/>
<path id="Fusion003_w0009"  d="M 35.0 -140.0 L 35.0 -104.99999999999997 L 35.0 -70.0 L 35.0 -35.0 L 35.0 0.0 L 35.0 35.0 L 35.0 70.0 L 35.0 105.0 L 35.0 140.0 " stroke="#191919" stroke-width="0.35 px" style="stroke-width:0.35;stroke-miterlimit:4;stroke-dasharray:none;fill:none;fill-opacity:1;fill-rule: evenodd"/>
<path id="Fusion003_w0010"  d="M 70.0 -140.0 L 70.0 -104.99999999999996 L 70.0 -70.0 L 70.0 -35.0 L 70.0 0.0 L 70.0 35.0 L 70.0 70.0 L 70.0 105.0 L 70.0 140.0 " stroke="#191919" stroke-width="0.35 px" style="stroke-width:0.35;stroke-miterlimit:4;stroke-dasharray:none;fill:none;fill-opacity:1;fill-rule: evenodd"/>
<path id="Fusion003_w0011"  d="M -35.0 -140.0 L -35.0 -104.99999999999997 L -35.0 -70.0 L -35.0 -35.0 L -35.0 0.0 L -35.0 35.0 L -35.0 70.0 L -35.0 105.0 L -35.0 140.0 " stroke="#191919" stroke-width="0.35 px" style="stroke-width:0.35;stroke-miterlimit:4;stroke-dasharray:none;fill:none;fill-opacity:1;fill-rule: evenodd"/>
<path id="Fusion003_w0012"  d="M 0.0 -140.0 L 0.0 -104.99999999999997 L 0.0 -70.0 L 0.0 -35.0 L 0.0 0.0 L 0.0 35.0 L 0.0 70.0 L 0.0 105.0 L 0.0 140.0 " stroke="#191919" stroke-width="0.35 px" style="stroke-width:0.35;stroke-miterlimit:4;stroke-dasharray:none;fill:none;fill-opacity:1;fill-rule: evenodd"/>
<path id="Fusion003_w0013"  d="M -70.0 -140.0 L -70.0 -104.99999999999999 L -70.0 -70.0 L -70.0 -35.0 L -70.0 0.0 L -70.0 35.0 L -70.0 70.0 L -70.0 105.0 L -70.0 140.0 " stroke="#191919" stroke-width="0.35 px" style="stroke-width:0.35;stroke-miterlimit:4;stroke-dasharray:none;fill:none;fill-opacity:1;fill-rule: evenodd"/>
<path id="Fusion003_w0014"  d="M -105.0 -140.0 L -105.0 -105.0 L -105.0 -70.0 L -105.0 -35.0 L -105.0 0.0 L -105.0 35.0 L -105.0 70.0 L -105.0 105.0 L -105.0 140.0 " stroke="#191919" stroke-width="0.35 px" style="stroke-width:0.35;stroke-miterlimit:4;stroke-dasharray:none;fill:none;fill-opacity:1;fill-rule: evenodd"/>
<title>b'grid'</title>
</g>
</svg>